<svg id="db6613d6-1658-44f5-b464-66fc4d4350f4" data-name="Layer 1" xmlns="http://www.w3.org/2000/svg" viewBox="0 0 278.55 171.5"><defs><style>.\34 9bca048-37f0-4641-a9d2-2fcb2458c0c9,.ec624007-9af9-412e-a585-16a2c7b57282{fill:#231f20;}.ec624007-9af9-412e-a585-16a2c7b57282{fill-rule:evenodd;}.\32 64a2123-9ee3-4787-b2a5-bbe2d9cf8c55{fill:#fff;}</style></defs><title>builders2</title><path class="ec624007-9af9-412e-a585-16a2c7b57282" d="M608.43,374c2-.36,3.91-.79,5.79-1,1.47-.16,2-1.08,2.8-2.15,2.62-3.38.65-6-.85-8.87-1.33-2.52-1.32-2.6,1.09-4.21s4.9-3.23,7.31-4.9c1.1-.77,2-.74,2.8.36.33.44.71.83,1,1.26,3.11,4.06,3.11,4.08,8.17,3.51a2.19,2.19,0,0,0,1.38-.92c1-1.6,1.84-3.36,3-4.87a2.56,2.56,0,0,1,2.3-.73c3.32,1.41,6.59,3,9.78,4.66.56.3.78,1.49.87,2.3a2.93,2.93,0,0,1-.6,1.71c-2.18,3.33-1.48,6.32,1,9.07a3.12,3.12,0,0,0,1.66.89c1.95.33,3.92.56,5.88.77a1.91,1.91,0,0,1,1.92,2.14c.13,3.41.32,6.81.54,10.21a1.8,1.8,0,0,1-1.8,2.2c-.41,0-.81.13-1.21.21-5.27.93-5.29.92-7.38,5.65a2.2,2.2,0,0,0,.18,1.62c.76,1.53,1.57,3,2.46,4.48s.6,2.34-.79,3.22c-2.65,1.68-5.25,3.44-7.83,5.23-1.16.81-2.1.83-3-.37-.36-.5-.79-.94-1.16-1.43-3.14-4.11-3.24-4.16-8.3-3.29a2.14,2.14,0,0,0-1.17.92c-1,1.46-2,3-2.85,4.48a1.81,1.81,0,0,1-2.7.88c-3.12-1.52-6.26-3-9.4-4.51a1.82,1.82,0,0,1-1-2.67,17.41,17.41,0,0,1,.8-2.1c1.69-2.84,1.53-5.36-.77-7.87-.78-.86-1.33-1.51-2.59-1.48-1.77.05-3.54-.08-5.31-.16a1.79,1.79,0,0,1-1.94-1.91c-.17-3.54-.4-7.08-.54-10.62A7,7,0,0,1,608.43,374Zm33.21,14a10.5,10.5,0,0,0,3.21-14.68,10.7,10.7,0,1,0-17.94,11.65A10.49,10.49,0,0,0,641.64,388Z" transform="translate(-543.35 -298.9)"/><path class="ec624007-9af9-412e-a585-16a2c7b57282" d="M638.13,350.8c-.54-.29-1.07-.6-1.62-.87-2.87-1.41-5.8-2.73-8.59-4.29a2.86,2.86,0,0,1-.92-2.26,6.3,6.3,0,0,1,1-2.67c1.18-2.09.84-3.79-.62-5.72a4.5,4.5,0,0,0-4-2.12c-5.4-.06-5.4-.13-5.74-5.6-.1-1.63-.1-3.28-.33-4.89-.29-2,.6-2.94,2.53-3.07a6.26,6.26,0,0,1,1-.13c3.91.39,5.13-2.47,6.34-5.28a2,2,0,0,0-.24-1.45,44.07,44.07,0,0,0-2.14-4c-.84-1.34-.56-2.2.76-3,2.48-1.56,4.92-3.2,7.32-4.89,1-.68,1.69-.72,2.38.31.3.45.7.83,1,1.26,3,3.7,3.1,3.78,7.65,3.1a2.7,2.7,0,0,0,1.52-1.12,43.92,43.92,0,0,0,2.62-4.14,1.62,1.62,0,0,1,2.49-.79c2.86,1.44,5.79,2.74,8.59,4.29.57.32.79,1.47.92,2.28.08.47-.33,1-.52,1.53-1.71,4.55-1.73,4.57,1.11,8.36a2.22,2.22,0,0,0,1.54.62c1.7.06,3.41,0,5.11,0,1.33,0,2,.42,2,1.87.09,3,.3,6,.54,9,.12,1.51-.45,2.34-2,2.53-.4.05-.81.13-1.21.2-4.76.79-4.78.78-6.63,5.17a2.16,2.16,0,0,0,.08,1.46,15.54,15.54,0,0,0,1.2,2.37c2.55,4.23,1.74,3.67-1.34,5.8-1.8,1.24-3.69,2.35-5.42,3.67-1.43,1.09-2.44.86-3.38-.54-.19-.28-.51-.49-.65-.79-1.55-3.32-4.32-3.7-7.45-3.06a2.79,2.79,0,0,0-1.52,1.07c-.91,1.27-1.69,2.64-2.52,4-.25.4-.53.79-.79,1.18Zm-3.46-20.05A10.68,10.68,0,1,0,637.54,316,10.56,10.56,0,0,0,634.67,330.75Z" transform="translate(-543.35 -298.9)"/><rect class="264a2123-9ee3-4787-b2a5-bbe2d9cf8c55" x="598.7" y="371.77" width="15.38" height="33.32" transform="translate(-560.98 448.96) rotate(-62.58)"/><path d="M605.65,393a14.94,14.94,0,0,1-4.62-4.31l1.29-1c1.3,1.68,3.65,4.07,4.82,4.14a.33.33,0,0,0,.29-.1c.38-.39-.38-1.37-1.34-2.51-1.12-1.35-2.39-2.87-1.47-4.25a1.81,1.81,0,0,1,1.43-.84c1.81-.11,4.06,2.39,4.49,2.89l-1.23,1.06c-.87-1-2.45-2.37-3.16-2.33-.05,0-.1,0-.18.12-.24.37.77,1.58,1.37,2.3,1.2,1.44,2.69,3.22,1.25,4.69a2,2,0,0,1-1.55.59A3.67,3.67,0,0,1,605.65,393Z" transform="translate(-543.35 -298.9)"/><polygon points="58.93 93.84 58.23 93.16 66.49 84.6 67.19 85.28 58.93 93.84"/><rect class="264a2123-9ee3-4787-b2a5-bbe2d9cf8c55" x="591.93" y="350.27" width="11.53" height="24.97" transform="translate(-482.53 511.73) rotate(-71.09)"/><path d="M597.65,366.2a11.19,11.19,0,0,1-3.9-2.68l.84-.88c1.15,1.1,3.16,2.61,4,2.53a.25.25,0,0,0,.2-.1c.24-.33-.43-1-1.27-1.71s-2.09-1.86-1.56-3a1.35,1.35,0,0,1,1-.78c1.33-.28,3.27,1.32,3.65,1.64l-.8.93c-.75-.65-2.08-1.49-2.6-1.37,0,0-.07,0-.12.11-.14.3.74,1.08,1.27,1.55,1,.93,2.35,2.09,1.45,3.34a1.46,1.46,0,0,1-1.08.61A2.75,2.75,0,0,1,597.65,366.2Z" transform="translate(-543.35 -298.9)"/><polygon points="51.78 67.5 51.18 67.08 56.36 59.82 56.96 60.24 51.78 67.5"/><rect class="264a2123-9ee3-4787-b2a5-bbe2d9cf8c55" x="658.99" y="382.93" width="31.17" height="14.39" transform="translate(-629.22 -79) rotate(-17.42)"/><path d="M677.07,393.62a14,14,0,0,1-5.91.19l.2-1.51c2,.26,5.11.29,5.93-.44a.31.31,0,0,0,.13-.25c0-.51-1.16-.66-2.55-.78-1.63-.15-3.48-.32-3.78-1.85a1.69,1.69,0,0,1,.4-1.5c1.13-1.27,4.27-1.1,4.89-1l-.12,1.52c-1.24-.09-3.19,0-3.63.54,0,0-.06.07,0,.19.08.4,1.55.54,2.42.62,1.74.16,3.9.36,3.93,2.29a1.82,1.82,0,0,1-.64,1.41A3.43,3.43,0,0,1,677.07,393.62Z" transform="translate(-543.35 -298.9)"/><polygon points="131.34 96.79 130.42 96.81 130.26 85.68 131.17 85.66 131.34 96.79"/><rect class="49bca048-37f0-4641-a9d2-2fcb2458c0c9" y="161.22" width="29.14" height="10.29"/><rect class="49bca048-37f0-4641-a9d2-2fcb2458c0c9" x="33.43" y="161.22" width="29.14" height="10.29"/><rect class="49bca048-37f0-4641-a9d2-2fcb2458c0c9" x="66.85" y="161.22" width="29.14" height="10.29"/><rect class="49bca048-37f0-4641-a9d2-2fcb2458c0c9" x="100.28" y="161.22" width="29.14" height="10.29"/><rect class="49bca048-37f0-4641-a9d2-2fcb2458c0c9" x="133.71" y="161.22" width="29.14" height="10.29"/><rect class="49bca048-37f0-4641-a9d2-2fcb2458c0c9" x="167.13" y="161.22" width="29.14" height="10.29"/><rect class="49bca048-37f0-4641-a9d2-2fcb2458c0c9" x="200.56" y="161.22" width="29.14" height="10.29"/><rect class="49bca048-37f0-4641-a9d2-2fcb2458c0c9" x="233.98" y="161.22" width="29.14" height="10.29"/><rect class="49bca048-37f0-4641-a9d2-2fcb2458c0c9" x="15.43" y="146.65" width="29.14" height="10.29"/><rect class="49bca048-37f0-4641-a9d2-2fcb2458c0c9" x="48.86" y="146.65" width="29.14" height="10.29"/><rect class="49bca048-37f0-4641-a9d2-2fcb2458c0c9" x="82.28" y="146.65" width="29.14" height="10.29"/><rect class="49bca048-37f0-4641-a9d2-2fcb2458c0c9" x="115.71" y="146.65" width="29.14" height="10.29"/><rect class="49bca048-37f0-4641-a9d2-2fcb2458c0c9" x="149.13" y="146.65" width="29.14" height="10.29"/><rect class="49bca048-37f0-4641-a9d2-2fcb2458c0c9" x="182.56" y="146.65" width="29.14" height="10.29"/><rect class="49bca048-37f0-4641-a9d2-2fcb2458c0c9" x="215.99" y="146.65" width="29.14" height="10.29"/><rect class="49bca048-37f0-4641-a9d2-2fcb2458c0c9" x="249.41" y="146.65" width="29.14" height="10.29"/><circle class="49bca048-37f0-4641-a9d2-2fcb2458c0c9" cx="156.53" cy="40.93" r="25.33"/><circle class="49bca048-37f0-4641-a9d2-2fcb2458c0c9" cx="179.87" cy="79.27" r="16.67"/><circle class="49bca048-37f0-4641-a9d2-2fcb2458c0c9" cx="199.2" cy="94.6" r="16.67"/><path class="49bca048-37f0-4641-a9d2-2fcb2458c0c9" d="M755.22,382.83s-25.33-22-23.33-16.67-8.67,12-8.67,12l19.33,15.33Z" transform="translate(-543.35 -298.9)"/><path class="49bca048-37f0-4641-a9d2-2fcb2458c0c9" d="M709.22,374.16v14.67s26.67,34,42.67,18.67l-4.67-16Z" transform="translate(-543.35 -298.9)"/><path class="49bca048-37f0-4641-a9d2-2fcb2458c0c9" d="M683.55,343.5a3.67,3.67,0,0,1-3.67,3.67H669.22a3.67,3.67,0,0,1-3.67-3.67h0a3.67,3.67,0,0,1,3.67-3.67h10.67a3.67,3.67,0,0,1,3.67,3.67Z" transform="translate(-543.35 -298.9)"/><path class="49bca048-37f0-4641-a9d2-2fcb2458c0c9" d="M737.75,390.69c2,.53,2.67,4.19,1.6,8.18l-5.64,21c-1.07,4-3.53,6.8-5.48,6.28h0c-2-.53-2.67-4.19-1.6-8.18l5.64-21c1.07-4,3.53-6.81,5.48-6.28Z" transform="translate(-543.35 -298.9)"/><path class="49bca048-37f0-4641-a9d2-2fcb2458c0c9" d="M775.66,411.12c-1,1.77-4.72,1.55-8.32-.48l-19-10.69c-3.6-2-5.72-5.1-4.72-6.87h0c1-1.76,4.72-1.55,8.32.48l19,10.69c3.6,2,5.72,5.1,4.72,6.87Z" transform="translate(-543.35 -298.9)"/><path class="49bca048-37f0-4641-a9d2-2fcb2458c0c9" d="M718,370.55a3.67,3.67,0,0,1-5.11-.91l-6.1-8.75a3.67,3.67,0,0,1,.91-5.1h0a3.67,3.67,0,0,1,5.1.91l6.1,8.75a3.66,3.66,0,0,1-.91,5.1Z" transform="translate(-543.35 -298.9)"/><path class="49bca048-37f0-4641-a9d2-2fcb2458c0c9" d="M693.22,438.16h48s-1.33-18.67-10-19.33S702.55,426.83,693.22,438.16Z" transform="translate(-543.35 -298.9)"/><path class="49bca048-37f0-4641-a9d2-2fcb2458c0c9" d="M747.48,437.16l42.11-23S779.46,398.39,771.54,402,750.23,422.74,747.48,437.16Z" transform="translate(-543.35 -298.9)"/><path class="49bca048-37f0-4641-a9d2-2fcb2458c0c9" d="M593.55,392.16s4.67,35.33,69.33,35.33h11.33s9.33-.67,9.33-14.67V394.16Z" transform="translate(-543.35 -298.9)"/><ellipse class="49bca048-37f0-4641-a9d2-2fcb2458c0c9" cx="163.86" cy="99.6" rx="11.33" ry="11"/><ellipse class="49bca048-37f0-4641-a9d2-2fcb2458c0c9" cx="75.53" cy="135.6" rx="11.33" ry="11"/><rect class="49bca048-37f0-4641-a9d2-2fcb2458c0c9" x="134.2" y="97.93" width="34" height="4"/></svg>