<svg id="b7996b70-f35a-4aaf-b89e-36a6c877aa46" data-name="Layer 1" xmlns="http://www.w3.org/2000/svg" viewBox="0 0 309.45 142.35"><defs><style>.\32 3f6ce66-0780-4b97-8e9b-84cc018e3eb9{fill:#fff;fill-rule:evenodd;}.e9046cdd-f61e-4668-a379-18708ed7b6cf{fill:#231f20;}</style></defs><title>buyers3</title><path class="23f6ce66-0780-4b97-8e9b-84cc018e3eb9" d="M528,413.42h56.48v1q0,19.81,0,39.62a6.58,6.58,0,0,1,0,.9c-.07.49-.3.84-.88.8-.18,0-.36,0-.54,0H529.44c-1.44,0-1.44,0-1.44-1.46V413.42Zm28.22,14.1c2,0,4,0,6,0,.82,0,1.12-.34,1.11-1.13,0-1.55,0-3.1,0-4.66,0-1-.2-1.27-1.25-1.27-3.94,0-7.88,0-11.82,0-.75,0-1.09.26-1.07,1.05q0,2.46,0,4.92c0,.83.34,1.11,1.13,1.09C552.28,427.5,554.25,427.52,556.22,427.52Z" transform="translate(-528 -313.97)"/><path class="23f6ce66-0780-4b97-8e9b-84cc018e3eb9" d="M528,409.83v-7h56.39v7Z" transform="translate(-528 -313.97)"/><path class="e9046cdd-f61e-4668-a379-18708ed7b6cf" d="M599.43,329.07a3.33,3.33,0,0,1-1.58-4.44l4.15-8.75a3.33,3.33,0,0,1,4.44-1.58h0a3.33,3.33,0,0,1,1.58,4.44l-4.15,8.75a3.33,3.33,0,0,1-4.44,1.58Z" transform="translate(-528 -313.97)"/><ellipse class="e9046cdd-f61e-4668-a379-18708ed7b6cf" cx="547.29" cy="401.68" rx="10.3" ry="9.99" transform="translate(-579.28 -232.59) rotate(-8.12)"/><path class="e9046cdd-f61e-4668-a379-18708ed7b6cf" d="M599.09,345.84l12-19.4a23,23,0,1,0,5.79,7.56C610.8,344.62,599.09,345.84,599.09,345.84Z" transform="translate(-528 -313.97)"/><path class="e9046cdd-f61e-4668-a379-18708ed7b6cf" d="M593.82,370.28a13.05,13.05,0,0,0-24.37-1.19c-2.43,3-6,8.46-8.36,12.17a12.88,12.88,0,0,0,5.76,21.29v.13c15.52,7.57,27.47-23.87,27.47-23.87l-.38-1.21A12.79,12.79,0,0,0,593.82,370.28Z" transform="translate(-528 -313.97)"/><path class="e9046cdd-f61e-4668-a379-18708ed7b6cf" d="M610.23,388.55l-25,41S570,418.62,573.92,410.88,595.7,390.6,610.23,388.55Z" transform="translate(-528 -313.97)"/><path class="e9046cdd-f61e-4668-a379-18708ed7b6cf" d="M628.23,392.55l-25,41S588,422.62,591.92,414.88,613.7,394.6,628.23,392.55Z" transform="translate(-528 -313.97)"/><path class="e9046cdd-f61e-4668-a379-18708ed7b6cf" d="M683.34,351.79a3.33,3.33,0,0,1-.22-4.71l6.52-7.17a3.33,3.33,0,0,1,4.71-.23h0a3.33,3.33,0,0,1,.22,4.71L688,351.56a3.33,3.33,0,0,1-4.71.23Z" transform="translate(-528 -313.97)"/><ellipse class="e9046cdd-f61e-4668-a379-18708ed7b6cf" cx="641.29" cy="377.02" rx="10.3" ry="9.99" transform="translate(-574.85 -219.55) rotate(-8.12)"/><ellipse class="e9046cdd-f61e-4668-a379-18708ed7b6cf" cx="715.96" cy="368.35" rx="10.3" ry="9.99" transform="translate(-572.88 -209.09) rotate(-8.12)"/><path class="e9046cdd-f61e-4668-a379-18708ed7b6cf" d="M682.23,363l13.07-10.23a23,23,0,1,0,3.41,14.61A21.76,21.76,0,0,1,682.23,363Z" transform="translate(-528 -313.97)"/><path class="e9046cdd-f61e-4668-a379-18708ed7b6cf" d="M691.76,389a13.05,13.05,0,0,0-21.6,11.34c-.55,3.85-.87,10.32-1,14.73A12.88,12.88,0,0,0,684.9,430.5l.07.11c17.22-1.36,11.55-34.51,11.55-34.51l-.95-.85A12.78,12.78,0,0,0,691.76,389Z" transform="translate(-528 -313.97)"/><path class="e9046cdd-f61e-4668-a379-18708ed7b6cf" d="M686.93,408.86c-2,.53-2.67,4.19-1.6,8.18l5.64,21c1.07,4,3.53,6.8,5.48,6.28h0c2-.53,2.67-4.19,1.6-8.18l-5.64-21c-1.07-4-3.53-6.81-5.48-6.28Z" transform="translate(-528 -313.97)"/><path class="e9046cdd-f61e-4668-a379-18708ed7b6cf" d="M731.45,456.32h-48s1.33-18.67,10-19.33S722.12,445,731.45,456.32Z" transform="translate(-528 -313.97)"/><path class="e9046cdd-f61e-4668-a379-18708ed7b6cf" d="M676.31,408.86c2,.53,2.67,4.19,1.6,8.18l-5.64,21c-1.07,4-3.53,6.8-5.48,6.28h0c-2-.53-2.67-4.19-1.6-8.18l5.64-21c1.07-4,3.53-6.81,5.48-6.28Z" transform="translate(-528 -313.97)"/><path class="e9046cdd-f61e-4668-a379-18708ed7b6cf" d="M631.78,456.32h48s-1.33-18.67-10-19.33S641.12,445,631.78,456.32Z" transform="translate(-528 -313.97)"/><path class="e9046cdd-f61e-4668-a379-18708ed7b6cf" d="M777.19,350.52a3.33,3.33,0,0,1-3.35-3.31l0-9.69a3.33,3.33,0,0,1,3.32-3.35h0a3.33,3.33,0,0,1,3.35,3.31l0,9.69a3.33,3.33,0,0,1-3.31,3.35Z" transform="translate(-528 -313.97)"/><path class="e9046cdd-f61e-4668-a379-18708ed7b6cf" d="M787.82,356l0-12.55a23,23,0,1,0,7.72,4.35A28.17,28.17,0,0,1,787.82,356Z" transform="translate(-528 -313.97)"/><ellipse class="e9046cdd-f61e-4668-a379-18708ed7b6cf" cx="765.96" cy="399.68" rx="10.3" ry="9.99" transform="translate(-576.8 -201.71) rotate(-8.12)"/><ellipse class="e9046cdd-f61e-4668-a379-18708ed7b6cf" cx="821.96" cy="368.35" rx="10.3" ry="9.99" transform="translate(-571.81 -194.11) rotate(-8.12)"/><path class="e9046cdd-f61e-4668-a379-18708ed7b6cf" d="M797.76,389a13.05,13.05,0,0,0-21.6,11.34c-.55,3.85-.87,10.32-1,14.73A12.88,12.88,0,0,0,790.9,430.5l.07.11c17.22-1.36,11.55-34.51,11.55-34.51l-.95-.85A12.78,12.78,0,0,0,797.76,389Z" transform="translate(-528 -313.97)"/><path class="e9046cdd-f61e-4668-a379-18708ed7b6cf" d="M792.93,408.86c-2,.53-2.67,4.19-1.6,8.18l5.64,21c1.07,4,3.53,6.8,5.48,6.28h0c2-.53,2.67-4.19,1.6-8.18l-5.64-21c-1.07-4-3.53-6.81-5.48-6.28Z" transform="translate(-528 -313.97)"/><path class="e9046cdd-f61e-4668-a379-18708ed7b6cf" d="M837.45,456.32h-48s1.33-18.67,10-19.33S828.12,445,837.45,456.32Z" transform="translate(-528 -313.97)"/><path class="e9046cdd-f61e-4668-a379-18708ed7b6cf" d="M782.31,408.86c2,.53,2.67,4.19,1.6,8.18l-5.64,21c-1.07,4-3.53,6.8-5.48,6.28h0c-2-.53-2.67-4.19-1.6-8.18l5.64-21c1.07-4,3.53-6.81,5.48-6.28Z" transform="translate(-528 -313.97)"/><path class="e9046cdd-f61e-4668-a379-18708ed7b6cf" d="M737.78,456.32h48s-1.33-18.67-10-19.33S747.12,445,737.78,456.32Z" transform="translate(-528 -313.97)"/></svg>