<svg id="3ca7c88d-d723-4c9d-a420-d693442d9764" data-name="Layer 1" xmlns="http://www.w3.org/2000/svg" viewBox="0 0 352.8 316.38"><defs><style>.\31 1327d11-f063-4afa-8d5f-af817fdf2250{fill:#231f20;}.\36 36760e7-ca5f-459d-bf9d-c645232362a1,.f419af28-a1d3-44ce-8ca7-722365c890fd{fill:#fff;}.\36 36760e7-ca5f-459d-bf9d-c645232362a1{fill-rule:evenodd;}</style></defs><title>buyers2</title><path class="11327d11-f063-4afa-8d5f-af817fdf2250" d="M675.09,542.78q-1.41,0-2.83,0c-30.45-.76-54.28-10.59-70.84-29.23-28.15-31.67-24.32-76.93-24.14-78.84l18.84,1.75c0,.37-3.18,39.19,19.53,64.62,12.94,14.5,32.15,22.16,57.09,22.79,20.76.51,37.22-5.61,50.31-18.73,32.5-32.59,31.12-96.24,31.1-96.88l18.91-.52c.08,2.94,1.56,72.48-36.62,110.76C720.34,534.6,699.71,542.78,675.09,542.78Z" transform="translate(-508.2 -226.62)"/><path class="11327d11-f063-4afa-8d5f-af817fdf2250" d="M588.26,542.78c-.68,0-1.36,0-2,0-15.82-.62-29.1-6.75-39.49-18.21-27.24-30.06-24.22-87.12-24.07-89.54l18.89,1.11A173.19,173.19,0,0,0,543,465.67c2.78,20.48,8.92,36.44,17.76,46.18,6.94,7.65,15.51,11.57,26.19,12,8.08.32,15-2.41,21-8.34,11.27-11,19.53-32.79,23.88-63A313.88,313.88,0,0,0,635,408.12l18.92-.33A327.22,327.22,0,0,1,650.63,455c-5,34.94-14.9,59.86-29.41,74.05C611.88,538.15,600.8,542.78,588.26,542.78Z" transform="translate(-508.2 -226.62)"/><path class="11327d11-f063-4afa-8d5f-af817fdf2250" d="M635.55,402.87l3.21-.7-1.61.35,1.61-.35s-.08-.35-.16-.94c-.33-2.33-.73-8.16,2.49-11.78,2-2.2,5.05-3.28,9.19-3.19,5.73.12,10.25-1.46,13.42-4.72,5-5.11,4.72-12.41,4.7-12.72l-3.29.15c0,.06.2,6.22-3.79,10.29-2.51,2.56-6.21,3.81-11,3.71-5.14-.1-9.08,1.34-11.71,4.29-4.13,4.65-3.68,11.63-3.29,14.42C635.45,402.4,635.54,402.83,635.55,402.87Z" transform="translate(-508.2 -226.62)"/><path class="11327d11-f063-4afa-8d5f-af817fdf2250" d="M639.44,401l3.23-.63c0-.05-.95-5.1,1.25-8a5.35,5.35,0,0,1,4.09-2c.94-.08,2-.13,3-.18,4.69-.24,10.54-.54,15.27-3.09,5.66-3,8.53-8.73,8.53-16.89h-3.29c0,15.64-11.47,16.22-20.69,16.69-1.11.06-2.16.11-3.15.19a8.57,8.57,0,0,0-6.45,3.3C638.21,394.49,639.39,400.74,639.44,401Z" transform="translate(-508.2 -226.62)"/><path class="11327d11-f063-4afa-8d5f-af817fdf2250" d="M641.93,401.21l3.12-1a.66.66,0,0,1,0,.13c-.09-.61.15-5.35,3.6-6,.92-.19,2.79-.3,5-.44,9.15-.59,24.47-1.57,25.83-10.17,1.43-9,1.27-11.31,1.23-11.67l-1.63.2-1.64.16c0,.09.15,2.17-1.21,10.79-.95,6-15.16,6.91-22.79,7.4a50.24,50.24,0,0,0-5.39.5,7.1,7.1,0,0,0-4.83,3.54A10.29,10.29,0,0,0,641.93,401.21Z" transform="translate(-508.2 -226.62)"/><path class="11327d11-f063-4afa-8d5f-af817fdf2250" d="M637,401.45s-.55-12.09,2-14.29,11.33-2.56,11.33-2.56l20.47,5.48s-21.2,2.19-23.39,4,.73,8,.73,8Z" transform="translate(-508.2 -226.62)"/><path class="11327d11-f063-4afa-8d5f-af817fdf2250" d="M755.47,402.87l3.21-.7-1.61.35,1.61-.35s-.08-.35-.16-.94c-.33-2.33-.73-8.16,2.49-11.78,2-2.2,5.05-3.28,9.19-3.19,5.73.12,10.25-1.46,13.42-4.72,5-5.11,4.72-12.41,4.7-12.72L785,369c0,.06.2,6.22-3.79,10.29-2.51,2.56-6.21,3.81-11,3.71-5.14-.1-9.08,1.34-11.71,4.29-4.13,4.65-3.68,11.63-3.29,14.42C755.37,402.4,755.46,402.83,755.47,402.87Z" transform="translate(-508.2 -226.62)"/><path class="11327d11-f063-4afa-8d5f-af817fdf2250" d="M759.36,401l3.23-.63c0-.05-.94-5.1,1.25-8a5.35,5.35,0,0,1,4.09-2c.93-.08,2-.13,3-.18,4.69-.24,10.54-.54,15.27-3.09,5.66-3,8.53-8.73,8.53-16.89H791.5c0,15.64-11.47,16.22-20.69,16.69-1.11.06-2.16.11-3.15.19a8.57,8.57,0,0,0-6.45,3.3C758.13,394.49,759.31,400.74,759.36,401Z" transform="translate(-508.2 -226.62)"/><path class="11327d11-f063-4afa-8d5f-af817fdf2250" d="M761.85,401.21l3.12-1a.66.66,0,0,1,0,.13c-.09-.61.15-5.35,3.6-6,.92-.19,2.79-.3,5-.44,9.15-.59,24.47-1.57,25.83-10.17,1.43-9,1.27-11.31,1.23-11.67l-1.63.2-1.64.16c0,.09.15,2.17-1.21,10.79-.95,6-15.16,6.91-22.79,7.4a50.27,50.27,0,0,0-5.39.5,7.1,7.1,0,0,0-4.83,3.54A10.28,10.28,0,0,0,761.85,401.21Z" transform="translate(-508.2 -226.62)"/><path class="11327d11-f063-4afa-8d5f-af817fdf2250" d="M756.9,401.45s-.55-12.09,2-14.29,11.33-2.56,11.33-2.56l20.47,5.48s-21.2,2.19-23.39,4,.73,8,.73,8Z" transform="translate(-508.2 -226.62)"/><path class="11327d11-f063-4afa-8d5f-af817fdf2250" d="M701.3,402.78a4,4,0,0,1-1-5.5l6.58-9.42a4,4,0,0,1,5.5-1h0a4,4,0,0,1,1,5.5l-6.58,9.42a4,4,0,0,1-5.5,1Z" transform="translate(-508.2 -226.62)"/><path class="11327d11-f063-4afa-8d5f-af817fdf2250" d="M707.83,415.4l8.57-12.17a27.33,27.33,0,1,0,4.5,9.5A33.36,33.36,0,0,1,707.83,415.4Z" transform="translate(-508.2 -226.62)"/><rect class="f419af28-a1d3-44ce-8ca7-722365c890fd" x="800.06" y="354.03" width="46.69" height="21.55" transform="translate(-552.5 379.36) rotate(-39.43)"/><path class="11327d11-f063-4afa-8d5f-af817fdf2250" d="M828.84,368.26c-1.28,1.06-3.68,2.44-8.09,3.58l-.57-2.21c2.88-.75,7.26-2.46,8-3.93a.45.45,0,0,0,0-.42c-.3-.71-2-.27-4,.34-2.35.7-5,1.5-6.28-.44a2.54,2.54,0,0,1-.29-2.31c.85-2.39,5.32-3.91,6.2-4.2l.69,2.18c-1.77.57-4.41,1.85-4.74,2.79,0,.07,0,.14.05.29.34.52,2.45-.11,3.71-.5,2.51-.75,5.63-1.69,6.74,1a2.73,2.73,0,0,1-.09,2.32A5,5,0,0,1,828.84,368.26Z" transform="translate(-508.2 -226.62)"/><rect class="11327d11-f063-4afa-8d5f-af817fdf2250" x="822.14" y="356.71" width="1.37" height="16.67" transform="translate(-585.38 121.09) rotate(-22.82)"/><rect class="f419af28-a1d3-44ce-8ca7-722365c890fd" x="630.93" y="293.88" width="25.68" height="11.85" transform="translate(-552.11 250.43) rotate(-39.43)"/><path class="11327d11-f063-4afa-8d5f-af817fdf2250" d="M646.75,301.71a11.51,11.51,0,0,1-4.45,2l-.32-1.21c1.58-.41,4-1.36,4.39-2.16a.25.25,0,0,0,0-.24c-.16-.39-1.08-.15-2.19.19-1.29.39-2.76.83-3.46-.24a1.39,1.39,0,0,1-.16-1.27c.47-1.32,2.92-2.16,3.41-2.31l.38,1.2c-1,.31-2.42,1-2.61,1.54,0,0,0,.07,0,.16.18.28,1.35-.06,2-.28,1.38-.41,3.09-.93,3.71.54a1.5,1.5,0,0,1-.05,1.28A2.82,2.82,0,0,1,646.75,301.71Z" transform="translate(-508.2 -226.62)"/><rect class="11327d11-f063-4afa-8d5f-af817fdf2250" x="643.07" y="295.35" width="0.75" height="9.17" transform="translate(-574.17 46.61) rotate(-22.84)"/><rect class="f419af28-a1d3-44ce-8ca7-722365c890fd" x="701.42" y="305.37" width="25.68" height="11.85" transform="translate(-535.61 -154.08) rotate(-5.71)"/><path class="11327d11-f063-4afa-8d5f-af817fdf2250" d="M715.69,314.54a11.52,11.52,0,0,1-4.79-.83l.41-1.19c1.55.54,4.07,1.09,4.86.64a.26.26,0,0,0,.15-.19c.08-.41-.82-.73-1.92-1.06-1.29-.39-2.75-.84-2.74-2.12a1.39,1.39,0,0,1,.57-1.14c1.12-.83,3.63-.17,4.12,0l-.35,1.21c-1-.28-2.58-.5-3-.17,0,0-.06,0-.06.15,0,.34,1.16.69,1.85.91,1.38.42,3.09.94,2.79,2.5a1.5,1.5,0,0,1-.75,1A2.86,2.86,0,0,1,715.69,314.54Z" transform="translate(-508.2 -226.62)"/><polygon class="11327d11-f063-4afa-8d5f-af817fdf2250" points="205.22 89.18 204.48 89.04 206.21 80.03 206.96 80.18 205.22 89.18"/><rect class="f419af28-a1d3-44ce-8ca7-722365c890fd" x="759.11" y="282.94" width="25.68" height="11.85" transform="translate(-519.71 318.26) rotate(-38.61)"/><path class="11327d11-f063-4afa-8d5f-af817fdf2250" d="M774.91,290.81a11.55,11.55,0,0,1-4.48,1.9l-.3-1.22c1.59-.39,4-1.3,4.42-2.1a.25.25,0,0,0,0-.23c-.16-.39-1.08-.16-2.19.16-1.3.37-2.77.79-3.45-.29a1.38,1.38,0,0,1-.14-1.27c.49-1.31,3-2.11,3.44-2.26l.36,1.2c-1,.3-2.44,1-2.63,1.5,0,0,0,.08,0,.16.18.29,1.35,0,2-.24,1.38-.4,3.11-.89,3.7.59a1.49,1.49,0,0,1-.07,1.27A2.83,2.83,0,0,1,774.91,290.81Z" transform="translate(-508.2 -226.62)"/><polygon class="11327d11-f063-4afa-8d5f-af817fdf2250" points="265.49 66.48 264.8 66.76 261.36 58.26 262.06 57.98 265.49 66.48"/><path class="11327d11-f063-4afa-8d5f-af817fdf2250" d="M539.47,393.6a4,4,0,0,1-1.88-5.26l4.92-10.39a4,4,0,0,1,5.26-1.88h0a4,4,0,0,1,1.88,5.26l-4.92,10.39a4,4,0,0,1-5.26,1.88Z" transform="translate(-508.2 -226.62)"/><path class="11327d11-f063-4afa-8d5f-af817fdf2250" d="M539.07,413.49l14.2-23a27.3,27.3,0,1,0,6.86,9C553,412,539.07,413.49,539.07,413.49Z" transform="translate(-508.2 -226.62)"/><path class="11327d11-f063-4afa-8d5f-af817fdf2250" d="M815.82,403.1l3.21-.7-1.61.35,1.61-.35s-.07-.35-.16-.94c-.33-2.33-.73-8.16,2.49-11.78,2-2.2,5.05-3.28,9.19-3.19,5.73.12,10.25-1.46,13.42-4.72,5-5.11,4.72-12.41,4.7-12.72l-3.29.15c0,.06.2,6.22-3.79,10.29-2.51,2.56-6.21,3.81-11,3.71-5.14-.1-9.08,1.34-11.71,4.29-4.13,4.65-3.68,11.63-3.29,14.42C815.71,402.62,815.81,403.06,815.82,403.1Z" transform="translate(-508.2 -226.62)"/><path class="11327d11-f063-4afa-8d5f-af817fdf2250" d="M819.71,401.24l3.23-.63c0-.05-.94-5.1,1.25-8a5.35,5.35,0,0,1,4.09-2c.94-.08,2-.13,3-.18,4.69-.24,10.54-.54,15.27-3.09,5.66-3,8.53-8.73,8.53-16.89h-3.29c0,15.64-11.47,16.22-20.68,16.69-1.11.06-2.16.11-3.15.19a8.57,8.57,0,0,0-6.45,3.3C818.48,394.72,819.66,401,819.71,401.24Z" transform="translate(-508.2 -226.62)"/><path class="11327d11-f063-4afa-8d5f-af817fdf2250" d="M822.2,401.44l3.12-1a.89.89,0,0,1,0,.13c-.09-.61.14-5.35,3.6-6,.93-.19,2.79-.3,5-.44,9.15-.59,24.47-1.57,25.83-10.17,1.43-9,1.27-11.31,1.23-11.67l-1.63.2-1.64.16c0,.09.15,2.17-1.21,10.79-.95,6-15.16,6.91-22.79,7.4a50.3,50.3,0,0,0-5.39.5,7.1,7.1,0,0,0-4.83,3.54A10.28,10.28,0,0,0,822.2,401.44Z" transform="translate(-508.2 -226.62)"/><path class="11327d11-f063-4afa-8d5f-af817fdf2250" d="M817.24,401.68s-.55-12.09,2-14.29,11.33-2.56,11.33-2.56l20.47,5.48s-21.2,2.19-23.39,4,.73,8,.73,8Z" transform="translate(-508.2 -226.62)"/><path class="11327d11-f063-4afa-8d5f-af817fdf2250" d="M759.06,543c-.74,0-1.48,0-2.22,0-19.08-.66-34.83-7.71-46.8-21-27.86-30.84-24.59-84.59-24.44-86.86l18.88,1.27c0,.47-2.85,48.11,19.64,73,8.52,9.41,19.44,14.22,33.38,14.7a35.83,35.83,0,0,0,27.68-10.8c12-11.78,20.69-33.39,25.26-62.49a274.68,274.68,0,0,0,3.25-42.4l18.91-.38c.07,3.41,1.27,83.83-34.13,118.72A54.39,54.39,0,0,1,759.06,543Z" transform="translate(-508.2 -226.62)"/><rect class="f419af28-a1d3-44ce-8ca7-722365c890fd" x="683.39" y="346.42" width="46.69" height="21.55" transform="translate(-574.22 303.54) rotate(-39.43)"/><path class="11327d11-f063-4afa-8d5f-af817fdf2250" d="M712.16,360.65c-1.28,1.06-3.68,2.44-8.09,3.58L703.5,362c2.88-.75,7.26-2.46,8-3.93a.45.45,0,0,0,0-.43c-.29-.7-2-.26-4,.34-2.35.7-5,1.5-6.29-.44a2.53,2.53,0,0,1-.29-2.3c.86-2.39,5.32-3.92,6.2-4.2l.69,2.18c-1.77.56-4.41,1.85-4.74,2.79,0,.07,0,.14.05.29.34.52,2.45-.12,3.72-.5,2.51-.75,5.62-1.69,6.74,1a2.72,2.72,0,0,1-.09,2.32A5.06,5.06,0,0,1,712.16,360.65Z" transform="translate(-508.2 -226.62)"/><polygon class="11327d11-f063-4afa-8d5f-af817fdf2250" points="201.81 138.23 200.55 138.77 194.08 123.41 195.34 122.87 201.81 138.23"/><rect class="f419af28-a1d3-44ce-8ca7-722365c890fd" x="750.58" y="359.81" width="46.69" height="21.55" transform="translate(-552.8 -113.54) rotate(-8.12)"/><path class="11327d11-f063-4afa-8d5f-af817fdf2250" d="M776.77,376.36c-1.64.23-4.41.17-8.78-1.15l.66-2.18c2.85.85,7.48,1.67,8.87.79a.45.45,0,0,0,.25-.35c.11-.75-1.55-1.25-3.57-1.78-2.38-.62-5.07-1.32-5.14-3.64a2.54,2.54,0,0,1,.95-2.12c2-1.6,6.58-.59,7.48-.36l-.54,2.22c-1.81-.44-4.73-.71-5.5-.08-.06,0-.11.09-.11.28,0,.62,2.16,1.17,3.43,1.5,2.53.66,5.68,1.48,5.25,4.33a2.72,2.72,0,0,1-1.28,1.93A5.16,5.16,0,0,1,776.77,376.36Z" transform="translate(-508.2 -226.62)"/><rect class="11327d11-f063-4afa-8d5f-af817fdf2250" x="764.96" y="369.81" width="16.67" height="1.37" transform="translate(-213.98 855.02) rotate(-81.63)"/><rect class="f419af28-a1d3-44ce-8ca7-722365c890fd" x="732.61" y="345.33" width="25.68" height="11.85" transform="translate(-564.44 315.36) rotate(-38.61)"/><path class="11327d11-f063-4afa-8d5f-af817fdf2250" d="M748.41,353.2a11.56,11.56,0,0,1-4.48,1.91l-.3-1.22c1.59-.39,4-1.29,4.42-2.1a.26.26,0,0,0,0-.23c-.16-.39-1.08-.16-2.19.15-1.3.37-2.77.79-3.45-.3a1.39,1.39,0,0,1-.14-1.27c.49-1.31,3-2.11,3.44-2.26l.36,1.2c-1,.3-2.44,1-2.63,1.5,0,0,0,.07,0,.16.18.29,1.35,0,2-.24,1.38-.39,3.11-.88,3.7.59a1.5,1.5,0,0,1-.07,1.28A2.86,2.86,0,0,1,748.41,353.2Z" transform="translate(-508.2 -226.62)"/><rect class="11327d11-f063-4afa-8d5f-af817fdf2250" x="744.75" y="346.8" width="0.75" height="9.17" transform="translate(-585.62 78.91) rotate(-22.06)"/><path class="11327d11-f063-4afa-8d5f-af817fdf2250" d="M590.32,430.26a4,4,0,0,1-2.89-4.79l2.76-11.15a4,4,0,0,1,4.78-2.89h0a4,4,0,0,1,2.89,4.79l-2.76,11.16a4,4,0,0,1-4.78,2.89Z" transform="translate(-508.2 -226.62)"/><path class="11327d11-f063-4afa-8d5f-af817fdf2250" d="M600.95,439.69l3.62-14.44a27.35,27.35,0,1,0,7.61,7.25A33.43,33.43,0,0,1,600.95,439.69Z" transform="translate(-508.2 -226.62)"/><path class="636760e7-ca5f-459d-bf9d-c645232362a1" d="M841.42,308c-3-1.48-5.5-1.1-7.9,1.27q-14.86,14.68-29.71,29.36a6.78,6.78,0,0,1-4,2.18,6,6,0,0,1-5-10l.54-.54-15-15.2.71-.7,29.32-29a5.94,5.94,0,0,1,8.82,0l21.69,22Zm-34.11,20.88a1.91,1.91,0,0,0,0-.74,1,1,0,0,1,.36-1.34c.5-.39.44-.84,0-1.22a.91.91,0,0,1-.33-1.19.76.76,0,0,0-.66-1.17.93.93,0,0,1-.85-.89c-.11-.62-.49-.88-1.12-.65a.91.91,0,0,1-1.19-.31c-.42-.56-.91-.53-1.34,0a.89.89,0,0,1-1.13.3c-.64-.26-1.06,0-1.17.65a.93.93,0,0,1-.89.86.73.73,0,0,0-.64,1.11.94.94,0,0,1-.34,1.19.79.79,0,0,0,0,1.36.87.87,0,0,1,.29,1.12c-.23.58-.08,1,.58,1.14a1,1,0,0,1,1,1,.68.68,0,0,0,1,.58,1,1,0,0,1,1.33.37.67.67,0,0,0,1.16,0,1.17,1.17,0,0,1,1.42-.37c.25.07.79-.14.84-.32.2-.75.56-1.24,1.37-1.31C807.07,329.06,807.13,329,807.31,328.87Zm1.1-18.15,7.49,7.58a2,2,0,0,0,.6.53.8.8,0,0,0,.71-.08.87.87,0,0,0,.05-.71c-.05-.19-.27-.32-.42-.48l-15.15-15.34c-.15-.15-.29-.37-.47-.43a.86.86,0,0,0-.7,0,.79.79,0,0,0-.11.7,2,2,0,0,0,.52.61Zm4.91-4.73q-3.77-3.82-7.55-7.64c-.34-.34-.7-1.06-1.29-.45s.12,1,.47,1.31q7.45,7.57,14.92,15.12a2.48,2.48,0,0,0,.68.56.68.68,0,0,0,.63-.08.88.88,0,0,0,.11-.71c-.06-.21-.3-.37-.47-.54Zm3.08-3.2,7.55,7.64c.15.15.28.38.47.43s.63.13.76,0,.12-.52.05-.77-.27-.32-.42-.47l-15.09-15.28a1.88,1.88,0,0,0-.61-.5.71.71,0,0,0-.63.13.73.73,0,0,0-.07.63,1.81,1.81,0,0,0,.46.55Zm-14,8.1-4.59-4.65a2.26,2.26,0,0,0-.6-.52.7.7,0,0,0-.63,0,.84.84,0,0,0-.15.7,1.82,1.82,0,0,0,.51.61l9.29,9.41c.13.13.25.34.41.38a4.45,4.45,0,0,0,.88.08,3.52,3.52,0,0,0,0-.87c-.05-.18-.27-.32-.42-.47Z" transform="translate(-508.2 -226.62)"/><path class="636760e7-ca5f-459d-bf9d-c645232362a1" d="M794.39,330.14a6.9,6.9,0,0,0-1.59,6.79l-.47-.43q-9.71-9.83-19.41-19.66a5.84,5.84,0,0,1,.14-8.29Z" transform="translate(-508.2 -226.62)"/><path class="636760e7-ca5f-459d-bf9d-c645232362a1" d="M841.93,317.75l-8-8.07a5.75,5.75,0,0,1,5.44-1.55,5,5,0,0,1,4.08,4A5.93,5.93,0,0,1,841.93,317.75Z" transform="translate(-508.2 -226.62)"/><path class="636760e7-ca5f-459d-bf9d-c645232362a1" d="M805.35,323.64a3.54,3.54,0,0,1,0,5.05,3.6,3.6,0,1,1-5.1-5.07A3.54,3.54,0,0,1,805.35,323.64Zm-4.48.52a2.81,2.81,0,0,0-.08,4,2.83,2.83,0,1,0,4.06-3.95A2.81,2.81,0,0,0,800.87,324.16Z" transform="translate(-508.2 -226.62)"/><path class="636760e7-ca5f-459d-bf9d-c645232362a1" d="M627.66,351.19c-1.08,1.76-2.27,3.16-4.7,3.09s-5,.31-7.55.46a2.64,2.64,0,0,1-2.83-2.75q.19-11.19.4-22.38c0-1.61.67-2.29,2.15-2.23q11.79.5,23.57,1c.43,0,.86.11,1.67.22-.62.44-.92.67-1.24.86-2,1.2-2,1.2-1.53,3.54.95,4.52,4.45,6.48,8.74,4.8a13.13,13.13,0,0,0,3.85-2c2.61-2.26,5.15-1.56,7.61,0,3.68,2.29,7.25,4.76,10.86,7.17,1.72,1.15,3.38,2.39,5.14,3.48,1,.61,1,1.22.42,2.09-1.18,1.91-2.39,2.29-4.3,1.26-2.49-1.34-5-2.72-7.48-4-.45-.23-1.43-.22-1.66.07-.61.8.16,1.23.8,1.58L670,352a5.69,5.69,0,0,1-3,4c-.29.18-.95,0-1.35-.26-2.63-1.39-5.24-2.83-7.87-4.23-.62-.33-1.39-1-2,0s.46,1.36,1.12,1.72c2.73,1.51,5.47,3,8.25,4.5a6,6,0,0,1-4.38,3.3c-.35.1-.85-.19-1.24-.39-2.27-1.2-4.51-2.48-6.82-3.62-.48-.24-1.21,0-1.82,0,.32.54.51,1.29,1,1.57,2.07,1.24,4.23,2.34,6.36,3.49a6.49,6.49,0,0,1-6.59,2.68c-.77-3.2-.66-7-5.32-7.48-.6-1.89-1.7-3.15-3.92-3-.31,0-.75-.37-1-.68-1.15-1.78-2.5-3-4.85-2.43a1.22,1.22,0,0,1-.9-.31c-3.4-2.79-4.45-2.76-7.67.26a1.16,1.16,0,0,1-.39.15c.2-3.56.38-7.12.59-10.69s.44-6.89.67-10.44l-13.56-.4c-.15,7.58-.29,15-.44,22.55,3.78-.21,7.35-.39,10.91-.62A10.8,10.8,0,0,0,627.66,351.19Z" transform="translate(-508.2 -226.62)"/><path class="636760e7-ca5f-459d-bf9d-c645232362a1" d="M679.92,340.56a43.5,43.5,0,0,0-3.89,3.12c-1.09,1.09-1.88.77-2.95,0-4.45-3.05-9-6-13.4-9.07a13.19,13.19,0,0,0-7.41-2.18,3.18,3.18,0,0,0-1.44.61,52.36,52.36,0,0,1-5.63,3.15,4.21,4.21,0,0,1-5.81-4,1.55,1.55,0,0,1,.62-1,99.5,99.5,0,0,1,8.41-6.36,28.28,28.28,0,0,1,6.84-2.72c5-1.49,10-1.06,14.91.29a2.92,2.92,0,0,0,1.94-.22c3.75-2,7.45-4,11.17-6,1.64-.88,2.26-.67,3.05,1q3.79,8.15,7.57,16.3c.89,1.93.41,3.35-1.47,4.37L684.86,342c-2.22,1.2-2.86,1.07-4.47-.91C680.28,340.92,680.13,340.78,679.92,340.56Zm-7.08-16.09,9.9,16,9.46-5.09-8-17.06Z" transform="translate(-508.2 -226.62)"/><path class="636760e7-ca5f-459d-bf9d-c645232362a1" d="M641.57,365.08c1.56-2,2.8-3.53,4-5.12.73-1,1.51-.82,2.34-.29s2,3.94,1.67,5a4.22,4.22,0,0,1-4,2.11A24.11,24.11,0,0,1,641.57,365.08Z" transform="translate(-508.2 -226.62)"/><path class="636760e7-ca5f-459d-bf9d-c645232362a1" d="M632.07,358.86c1.49-1.75,2.92-3.36,4.27-5,.83-1,1.62-1.21,2.66-.34a1.58,1.58,0,0,1,.18,2.66c-1,1.15-2,2.39-3,3.59-1.35,1.65-2.44,1.61-3.72-.15A8.13,8.13,0,0,1,632.07,358.86Z" transform="translate(-508.2 -226.62)"/><path class="636760e7-ca5f-459d-bf9d-c645232362a1" d="M644.62,357.45a6.28,6.28,0,0,1-.52,1.21c-1.2,1.61-2.39,3.24-3.68,4.78-.91,1.09-1.74.11-2.46-.38s-1.23-1-.4-2c1.28-1.42,2.4-3,3.72-4.36a2.38,2.38,0,0,1,1.87-.52C643.67,356.32,644.09,357,644.62,357.45Z" transform="translate(-508.2 -226.62)"/><path class="636760e7-ca5f-459d-bf9d-c645232362a1" d="M634.63,352.75c-1.12,1.36-2.23,2.78-3.44,4.12a1.3,1.3,0,0,1-1.25.19,12.32,12.32,0,0,1-2-2,1,1,0,0,1-.06-.95,27,27,0,0,1,3-3.17C631.86,350.15,633.45,351,634.63,352.75Z" transform="translate(-508.2 -226.62)"/><path class="636760e7-ca5f-459d-bf9d-c645232362a1" d="M723.48,270.33l-.74,4,8,1.48-.62,3.33-28-5.19.61-3.29,7.94,1.47.75-4-.76-.14-14.35-2.66a6.74,6.74,0,0,1-5.66-5.63,7.09,7.09,0,0,1,0-2.31q2.76-15.13,5.59-30.25c0-.14.06-.28.11-.46L752.46,237l-.14.78-5.5,29.63a6.82,6.82,0,0,1-8.26,5.68l-14.23-2.64Zm23.39-29.47-46.72-8.66-4.32,23.31,46.72,8.66Z" transform="translate(-508.2 -226.62)"/></svg>