<svg id="efa11453-7d18-4841-954e-1d8b50fa6e7f" data-name="Layer 1" xmlns="http://www.w3.org/2000/svg" viewBox="0 0 617.6 605.61"><defs><style>.c09d421a-1e35-4f74-8b3e-2832e70729c5{fill:#fff;}</style></defs><title>capitol</title><path class="c09d421a-1e35-4f74-8b3e-2832e70729c5" d="M615.7,602.27H542.15l-1-2.23h73.29l-4.42-7.8H537.64l-1-2.23h72.11l-4.42-7.8h-71.2l-1-2.23h70.93l-4.42-7.8h-70l-1-2.23h69.75l-4.42-7.8H524.13l-1-2.23h56.74l-4-7.8H519.63l-.5-1.12H501.29l-.47-1.11H574.7l-4-7.8H497.53l-.94-2.23h72.94l-4-7.8H493.31l-.94-2.23h72l-4-7.8H489.08l-.94-2.23h71.06l-4.78-9.29H503.52v-.19H484.16l-.7-1.67-2.79,1.67H137.3l-2.79-1.67-.7,1.67h-16v.19H63.17l-4.78,9.29h71.43l-.94,2.23H57.24l-4,7.8H125.6l-.94,2.23H52.08l-4,7.8h73.31l-.94,2.23H46.91l-4,7.8h74.25l-.47,1.11H98.84l-.5,1.12H41.75l-4,7.8H94.84l-1,2.23H24.64l-4.42,7.8H90.34l-1,2.23H19L14.53,580h71.3l-1,2.23H13.26L8.84,590H81.33l-1,2.23H7.58L3.16,600H76.82l-1,2.23H1.9L0,605.61H617.6ZM440,555.77c-28.74,4.11-68.06,9.27-99.59,11.69-11.16.86-21.34,1.37-29.73,1.37-9.19,0-20.72-.65-33.44-1.72-30.11-2.53-66.9-7.39-95.31-11.47-7.11-1-13.69-2-19.51-2.87-10.19-1.54-18-2.77-22.3-3.45v-2.26c4.11.66,12,1.9,22.3,3.45,5.81.88,12.39,1.85,19.51,2.87,8.32,1.2,17.36,2.47,26.75,3.72l8.64,1.14c20.15,2.61,41.32,5.07,59.92,6.64,12.73,1.07,24.26,1.73,33.44,1.73,8.38,0,18.57-.52,29.73-1.37,20.07-1.54,43.31-4.2,65-7l7.88-1c9.5-1.26,18.56-2.52,26.75-3.69,7.3-1,13.9-2,19.51-2.87,9.43-1.42,16-2.46,18.39-2.84v2.26c-2.64.42-9.2,1.45-18.39,2.84C453.86,553.75,447.25,554.72,440,555.77Zm19.51-12.9c-5.62.85-12.22,1.82-19.51,2.87V534.27h.2a9.76,9.76,0,0,1,19.12,0h.2Zm-46.26,6.56c-6.35.84-12.9,1.68-19.51,2.49V534.27h.2a9.76,9.76,0,0,1,19.12,0h.2ZM367,555c-6.66.7-13.2,1.33-19.51,1.87V534.27h.19a9.76,9.76,0,0,1,19.12,0h.2Zm-92.53,1.86c-6.29-.55-12.83-1.19-19.51-1.9V534.27h.2a9.75,9.75,0,0,1,19.11,0h.2Zm-46.26-5c-6.58-.82-13.12-1.66-19.51-2.52V534.27h.2a9.76,9.76,0,0,1,19.12,0h.2ZM181.9,545.6c-7.12-1-13.69-2-19.51-2.88v-8.46h.2a9.75,9.75,0,0,1,19.11,0h.2Zm138.59-11.34h.2v24H301.18v-24h.2a9.76,9.76,0,0,1,19.12,0Z"/><path class="c09d421a-1e35-4f74-8b3e-2832e70729c5" d="M231.25,219.21a304,304,0,0,1,81.11-11c34.93,0,62.58,5.72,82.16,11.84a193,193,0,0,1,24.94,9.61v-1.71l-4.77-5.83A195,195,0,0,0,395.76,215c-19.47-6.27-47.53-12.34-83.39-12.34A301.72,301.72,0,0,0,230.08,214a263.43,263.43,0,0,0-29.68,10.31l-.72.86.09,4.79A267.87,267.87,0,0,1,231.25,219.21Z"/><path class="c09d421a-1e35-4f74-8b3e-2832e70729c5" d="M292.85,201l35.9-.19a267,267,0,0,1,67.42,11.92c5.95,1.91,11.13,3.84,15.49,5.63l-9.1-11.12a11.34,11.34,0,0,0-1.06-1.7,28.36,28.36,0,0,0-4.19-4.51l-.71-.61c0-.09,0-.17,0-.25a76,76,0,0,0-3.72-23.51,3.29,3.29,0,0,1-1.3.28,2.54,2.54,0,0,1-2.78-2.19V166.9a1.71,1.71,0,0,1,0-.17,80.77,80.77,0,0,0-22.22-27.59c13.73,21.21,15.9,44,16.18,53,.08,2.5,0,4,0,4l-2.23-.12c0-.08.08-1.87,0-4.88C380.11,181,377.27,156.44,361,135a85.58,85.58,0,0,0-12.64-7,153,153,0,0,1,15,57.89c.18,3.62.12,5.72.12,5.81l-2.23-.08c0-.1.06-2.37-.15-6.24a150,150,0,0,0-15.9-58.73l-1-.38v-8.37a59.77,59.77,0,0,0-12.24-6l2.76-5.14s-2.07-2.79-7.25-5.15V75.49c3.79-1.71,6.13-4.06,6.13-6.65,0-3-3.06-5.62-7.84-7.36l-2.19-6.58s-.92-.37-2.28-.86c-1.22-2.95-3.16-8.7-2.18-13.64,0,0,.69-5.66-3.54-8,2.09-3.09,4.38-14.06,4.38-14.06s-2.61-9-4.59-12.26A23.22,23.22,0,0,0,312.72,0a24.3,24.3,0,0,1-2.23,2c-.67.5.17,1.91.95,3a13.53,13.53,0,0,0-2.34.67s-5,12.54-5,15.05,2.51,1.95,2.51,1.95l3.19,9c-7,1.11-4.58,9.92-4.58,9.92s1.2,6.73-2.88,11.93c-1.59.49-2.69.89-2.69.89L297.89,62c-4.07,1.73-6.63,4.17-6.63,6.88,0,2.46,2.12,4.7,5.57,6.39v25.35c-5.22,2.13-6.13,5-6.13,5l1.4,4.88a40,40,0,0,0-12,5.71v10.11q-2.62,1-5.15,2.2a150.25,150.25,0,0,0-14.69,58.31c-.09,2.51,0,4,0,4l-2.23.08c0-.07,0-1.36,0-3.59a152.74,152.74,0,0,1,13.72-57.25,84.74,84.74,0,0,0-15.63,10.47C242.67,162,241,184.71,240.89,192.5c0,1.74,0,2.75,0,2.81l-2.23.12c0-.05,0-.79,0-2.08a108.76,108.76,0,0,1,12-47.67l-.1.1a79.5,79.5,0,0,0-16.67,25v4a2.26,2.26,0,0,1-1.74,2,3.6,3.6,0,0,1-.55.09,75.81,75.81,0,0,0-3.6,21.25c-2.49,1.29-4.59,2.51-6.3,3.6a41,41,0,0,0-6.39,4.77l-11.83,14.2a272.16,272.16,0,0,1,26.23-8.86A303.5,303.5,0,0,1,292.85,201Zm77.29-36.3a2.55,2.55,0,0,1,2.88,2.07l.35,7.88a2.87,2.87,0,0,1-5.57.25l-.35-7.88A2.54,2.54,0,0,1,370.14,164.72ZM309.66,69.57a19.9,19.9,0,0,1,2.51-.17,20.35,20.35,0,0,1,2.51.17v29c-1.24-.09-2.52-.16-3.9-.16l-1.11,0ZM318.58,99V70.48a14.12,14.12,0,0,1,5,3v26.66A38,38,0,0,0,318.58,99Zm-17.84-25.5a14.15,14.15,0,0,1,5-3V98.61a38,38,0,0,0-5,.77Zm-51.61,93.26a2.87,2.87,0,0,1,5.56.32l-.45,7.87a2.87,2.87,0,0,1-5.57-.32Zm46.59-5.68a2.8,2.8,0,0,1,5.57,0v9a2.8,2.8,0,0,1-5.57,0Zm12.82-31.85v-9.55c.74,0,1.49,0,2.23-.06v68.32h-2.23V129.22ZM324.15,170a2.8,2.8,0,0,1-5.57,0v-9a2.8,2.8,0,0,1,5.57,0ZM347,161.37a2.61,2.61,0,0,1,2.78,2.39v8.6a2.82,2.82,0,0,1-5.57,0v-8.6A2.61,2.61,0,0,1,347,161.37Zm-16-39.06c.63,2.48,1.21,5,1.74,7.54,4.11,19.84,5.16,41,5.42,52.29.1,4.57.08,7.52.07,8l-2.23,0c0-.14,0-3.2-.1-8.2-.3-11.32-1.42-32.56-5.5-52.16-.57-2.7-1.19-5.38-1.88-8-.08-.3-.16-.61-.24-.91.83.14,1.65.29,2.47.45Zm-60.37,41.45a2.82,2.82,0,0,1,5.57,0v8.6a2.82,2.82,0,0,1-5.57,0Zm18.21-35c.39-1.89.83-3.75,1.28-5.6l.14-.58c.83-.22,1.66-.43,2.5-.63l-.16.61c-.52,2.06-1,4.15-1.44,6.26-4.33,20.61-5.37,43.09-5.6,54-.09,4.07-.07,6.54-.07,6.66l-2.23,0c0-.45,0-2.79,0-6.45C283.51,172.17,284.46,149.63,288.85,128.71Z"/><path class="c09d421a-1e35-4f74-8b3e-2832e70729c5" d="M201,274.46a423.26,423.26,0,0,1,61.19-11.23,440.45,440.45,0,0,1,48-2.64A430.88,430.88,0,0,1,363,263.77a351.22,351.22,0,0,1,50.92,10c6.13,1.71,11.48,3.42,16.08,5v-2.94L427,272.66l-7.53-5.94V232.09a188.9,188.9,0,0,0-25.58-9.94c-19.38-6.05-46.81-11.73-81.52-11.73a302,302,0,0,0-80.48,10.92,264.25,264.25,0,0,0-32.06,11.07l.05,2.91,0,1.68,1.24.66v23.5l-.77.29,0,1.36-15.93,8.8-5.26,2.9,0,6.42C185.27,278.93,192.56,276.69,201,274.46ZM219,233c2.67-.89,5.65-1.84,8.92-2.81v23.12q-4.73,1.06-8.92,2.18Zm15.37-4.66c2.21-.61,4.52-1.21,6.93-1.81v24.13q-4.67.81-8.92,1.69V228.9Zm167.46,4.52v23.85q-4-1.45-8.92-2.84V230C396.16,231,399.14,232,401.82,232.86Zm-13.38,2.34v17.49q-4.15-1-8.92-2V226.32c3.14.79,6.11,1.59,8.92,2.39Zm-13.38,14.66c-2.83-.5-5.78-1-8.92-1.42V223.3q4.62.93,8.92,1.94Zm-13.38-2c-2.86-.36-5.8-.69-8.92-1v-26q4.58.71,8.92,1.52Zm-13.38-1.36c-2.87-.23-5.84-.44-8.92-.62V219.18c3,.32,6,.68,8.92,1.08Zm-13.38-.84q-4.32-.2-8.92-.32V218.1q4.53.26,8.92.65Zm-13.38-.44q-4.34-.08-8.91-.07h0V217.68q4.51,0,8.92.2Zm-13.38,0q-4.56,0-8.92.15v-27.4c2.93-.13,5.91-.21,8.92-.25Zm-13.38.26c-3,.1-6,.24-8.92.39v-27c2.93-.28,5.9-.52,8.92-.71Zm-13.38.65c-3.05.19-6,.4-8.92.64V220.45q4.37-.62,8.92-1.12Zm-13.38,1c-3.06.29-6,.6-8.92.94V222.64q4.34-.81,8.92-1.53Zm-13.38,1.49q-3.73.49-7.25,1l-1.67.25V225.46q4.3-1,8.92-1.95Zm151.61,9.79v-24c4,1.45,7,2.67,8.92,3.45v24.88A76.63,76.63,0,0,0,406.27,258.44ZM205.61,237.91c1.87-.76,4.91-2,8.92-3.37v22.19c-3.25.94-6.2,1.89-8.92,2.82Z"/><path class="c09d421a-1e35-4f74-8b3e-2832e70729c5" d="M430,298.23v-3.42l0-5.87a297.1,297.1,0,0,0-37.82-10.32l-4-.8q-5.51-1.08-11.5-2-2.82-.46-5.75-.88-5.56-.81-11.51-1.5-2.83-.33-5.75-.62c-1.93-.19-3.89-.38-5.88-.56s-3.72-.32-5.62-.45-3.82-.25-5.75-.37q-5.63-.33-11.5-.53c-1.9-.06-3.81-.12-5.75-.15-2.95-.06-5.94-.1-9-.1l-2.52,0c-1.93,0-3.85,0-5.75.06-3.9.07-7.72.21-11.51.39-1.93.09-3.85.18-5.75.29q-3.71.22-7.33.49l-4.17.34q-2.91.25-5.75.53c-3.91.39-7.76.81-11.5,1.28q-2.91.36-5.75.76c-3.95.55-7.77,1.14-11.5,1.77q-2.92.49-5.75,1-6,1.08-11.5,2.25-2.94.62-5.75,1.25-6,1.36-11.5,2.77-2.33.6-4.54,1.19c-7.89,2.12-14.7,4.22-20.32,6.11v3.38l0,4.54,1.83-.51v44.71l-1.67.61,0,4.12v.43l1.65-.55c1.82-.6,3.72-1.22,5.75-1.85l2.73-.83v0l.44-.12q3.93-1.18,8.33-2.39l2-.54,3.79-1c2.33-.6,4.78-1.2,7.34-1.8a424,424,0,0,1,96.41-11.09,413.07,413.07,0,0,1,60.35,4.31L371,333q2.94.45,5.75.94,6.05,1,11.5,2.17,3,.61,5.75,1.24c4.14.93,8,1.87,11.5,2.8,1.59.42,3.13.84,4.58,1.25l1.17.34c4.21,1.21,8,2.42,11.51,3.59,2,.69,4,1.37,5.75,2l1.3.49,0-5.77-1.33-.53V297.82ZM353.71,284v39.1c-3.74-.46-7.56-.89-11.5-1.24V283C346.12,283.29,349.95,283.65,353.71,284Zm-63.27-2.14q5.68-.21,11.51-.28v38.64q-5.8.05-11.51.32Zm17.26-.31q5.82,0,11.5.18v38.72q-5.64-.19-11.5-.24Zm17.26.38q5.84.24,11.5.61v38.85c-3.75-.29-7.58-.53-11.5-.72Zm-40.26.17v38.79q-5.81.38-11.51,1v-39Q278.84,282.43,284.68,282.14Zm-17.26,1.18v39.19c-3.89.46-7.72,1-11.5,1.57V284.45Q261.56,283.83,267.43,283.32Zm-17.26,1.79V325c-3.9.66-7.75,1.36-11.5,2.12V286.65Q244.26,285.84,250.17,285.12Zm-17.25,2.41v40.81q-5.9,1.29-11.5,2.68V289.47Q226.95,288.47,232.91,287.52Zm-46,53.68V297c3.45-.89,7.3-1.83,11.5-2.8v43.26Q192.35,339.33,186.9,341.21Zm17.26-5.5V292.9c3.62-.79,7.46-1.58,11.5-2.36v41.94Q209.7,334.07,204.15,335.7Zm155.3-11.83V284.67q5.91.68,11.51,1.47v39.54Q365.39,324.71,359.46,323.88Zm17.26,2.84V287q6,.9,11.5,1.89v40.26C384.53,328.28,380.69,327.48,376.71,326.72ZM394,330.49V289.92c4,.76,7.88,1.54,11.5,2.32V333.6Q400,332,394,330.49Zm28.76,8.8c-3.58-1.32-7.4-2.64-11.51-3.94V293.51c4.18,1,8,1.89,11.51,2.79Z"/><path class="c09d421a-1e35-4f74-8b3e-2832e70729c5" d="M430,281.15c-14.89-5.21-38.41-11.77-69.83-15.47a427.75,427.75,0,0,0-50-2.87A436.22,436.22,0,0,0,265,265.17a405.62,405.62,0,0,0-85.79,18.15l0,5.41c6-2,13.29-4.24,21.73-6.46,4.85-1.28,10.31-2.61,16.28-3.91,1.36-.3,2.72-.59,4.13-.88,3.65-.76,7.5-1.5,11.5-2.22,1.88-.33,3.8-.66,5.75-1q5.55-.92,11.5-1.74c1.89-.26,3.81-.52,5.75-.76q5.6-.7,11.5-1.28c1.89-.19,3.82-.36,5.75-.52h.14c3.72-.31,7.49-.6,11.36-.83,1.89-.11,3.82-.19,5.75-.28,3.78-.17,7.6-.31,11.51-.38,1.9,0,3.82,0,5.75-.06l2.52,0q4.56,0,9,.09c1.95,0,3.85.1,5.75.17q5.88.19,11.5.52,2.91.17,5.75.38,5,.36,9.68.81l1.82.18c1.95.19,3.87.4,5.75.61,4,.46,7.81,1,11.51,1.48l2.38.36A341.74,341.74,0,0,1,414,281.53c6.11,1.7,11.46,3.41,16.05,5Z"/><path class="c09d421a-1e35-4f74-8b3e-2832e70729c5" d="M192,373.74v13.93h1.12v74.69H192v41.25H427.27V462.36H425.6V387.67h1.67V373.74h81.38V356.46H429.76l0-4.5v-1.79l-1.3-.49q-2.66-1-5.75-2l-2-.66v9.66h-2.23V346.26q-3.44-1.11-7.32-2.23l-1.87-.55c-1.25-.35-2.54-.71-3.88-1.07l-1.05-.27v14.51H402.2V341.56c-4.28-1.09-9-2.19-14.12-3.25v18.33h-2.23v-18.8c-4.41-.88-9.14-1.72-14.12-2.51v21.31h-2.23V335c-4.49-.68-9.19-1.32-14.12-1.88v23.55h-2.23V332.85q-6.8-.74-14.12-1.28v25.07h-2.23V331.43q-6.85-.46-14.12-.72v25.94h-2.23v-26c-4.09-.12-8.25-.2-12.53-.2l-1.59,0v26.18h-2.23V330.48q-7.19.07-14.12.36v25.8h-2.23v-25.7q-7.22.34-14.12.9v24.79h-2.23V332q-7.25.63-14.12,1.46v23.14H255V333.77q-7.3.92-14.12,2v20.85h-2.23V336.17q-7.35,1.23-14.12,2.6v17.87h-2.23V339.23q-7.46,1.56-14.12,3.22v14.2h-1.36l-.87,0V343c-5.1,1.29-9.81,2.59-14.12,3.87v9.48l-2.23,0v-8.77c-3.22,1-6.22,1.93-8.94,2.83l-1.19.4v.1l0,5.24v.35H111.78v17.28H192Zm8.36,53.51V387.67h6.13v74.69h-6.13Zm13.38,0V387.67h27.87v74.69H213.78Zm21.74,67.44H223.26v-19h12.26Zm13.38-67.44V387.67H255v74.69H248.9Zm13.37,0V387.67H289v74.69H262.28Zm17.84,67.44H267.85v-19h12.26Zm16.16-67.44V387.67h27.87v74.69H296.28Zm20.62,67.44H304.64v-19H316.9Zm14.49-67.44V387.67h26.2v74.69H331.4Zm19,67.44H338.08v-19h12.26Zm14.49-67.44V387.67H371v74.69h-6.13Zm13.38,0V387.67H405v74.69H378.22Zm20.07,67.44H386v-19h12.26Zm20.07-67.44v35.12h-6.13V387.67h6.13Zm3.9-44.08H197.06V362.08H422.25v21.09Z"/><polygon class="c09d421a-1e35-4f74-8b3e-2832e70729c5" points="190.37 376.34 179.6 376.34 112.71 376.34 112.71 387.11 179.63 387.11 190.37 387.11 190.37 376.34"/><polygon class="c09d421a-1e35-4f74-8b3e-2832e70729c5" points="190.37 466.82 190.37 427.25 190.37 389.16 179.64 389.16 112.71 389.16 112.71 466.82 126.46 466.82 126.46 389.34 128.69 389.34 128.69 466.82 140.58 466.82 140.58 389.34 142.81 389.34 142.81 466.82 154.7 466.82 154.7 389.34 156.93 389.34 156.93 466.82 168.82 466.82 168.82 389.34 171.05 389.34 171.05 466.82 190.37 466.82"/><polygon class="c09d421a-1e35-4f74-8b3e-2832e70729c5" points="189.82 484.1 107.88 484.1 107.88 508.63 133.52 508.63 189.82 508.63 189.82 484.1"/><rect class="c09d421a-1e35-4f74-8b3e-2832e70729c5" x="107.88" y="469.05" width="81.94" height="12.82"/><path class="c09d421a-1e35-4f74-8b3e-2832e70729c5" d="M226.88,432.26c-2.56,0-4.7,2.88-5.19,6.71h-.11v20.6h10.59V439h-.11C231.58,435.14,229.44,432.26,226.88,432.26Z"/><path class="c09d421a-1e35-4f74-8b3e-2832e70729c5" d="M275.38,432.26c-2.56,0-4.7,2.88-5.19,6.71h-.11v20.6h10.59V439h-.11C280.08,435.14,277.94,432.26,275.38,432.26Z"/><path class="c09d421a-1e35-4f74-8b3e-2832e70729c5" d="M309.94,432.26c-2.56,0-4.7,2.88-5.19,6.71h-.11v20.6h10.59V439h-.11C314.63,435.14,312.5,432.26,309.94,432.26Z"/><path class="c09d421a-1e35-4f74-8b3e-2832e70729c5" d="M343.38,432.26c-2.56,0-4.7,2.88-5.19,6.71h-.11v20.6h10.59V439h-.11C348.08,435.14,345.94,432.26,343.38,432.26Z"/><path class="c09d421a-1e35-4f74-8b3e-2832e70729c5" d="M391.32,432.26c-2.56,0-4.7,2.88-5.19,6.71H386v20.6h10.59V439h-.11C396,435.14,393.88,432.26,391.32,432.26Z"/><rect class="c09d421a-1e35-4f74-8b3e-2832e70729c5" x="223.26" y="399.38" width="11.7" height="12.82"/><rect class="c09d421a-1e35-4f74-8b3e-2832e70729c5" x="270.08" y="399.38" width="11.71" height="12.82"/><rect class="c09d421a-1e35-4f74-8b3e-2832e70729c5" x="303.53" y="399.38" width="11.71" height="12.82"/><rect class="c09d421a-1e35-4f74-8b3e-2832e70729c5" x="337.53" y="399.38" width="11.71" height="12.82"/><rect class="c09d421a-1e35-4f74-8b3e-2832e70729c5" x="385.46" y="399.38" width="11.7" height="12.82"/><polygon class="c09d421a-1e35-4f74-8b3e-2832e70729c5" points="199.29 370.39 199.29 373.74 199.29 380.94 420.02 380.94 420.02 373.74 420.02 370.39 420.02 364.31 199.29 364.31 199.29 370.39"/><rect class="c09d421a-1e35-4f74-8b3e-2832e70729c5" x="430.12" y="375.57" width="78.34" height="10.87"/><polygon class="c09d421a-1e35-4f74-8b3e-2832e70729c5" points="507.46 466.83 507.46 388.5 429.12 388.5 429.12 466.83 445.42 466.83 445.42 388.69 447.68 388.69 447.68 466.83 459.67 466.83 459.67 388.69 461.92 388.69 461.92 466.83 473.91 466.83 473.91 388.69 476.16 388.69 476.16 466.83 488.15 466.83 488.15 388.69 490.4 388.69 490.4 466.83 507.46 466.83"/><polygon class="c09d421a-1e35-4f74-8b3e-2832e70729c5" points="512.39 469.08 429.75 469.08 429.75 482.01 511.27 482.01 511.27 484.26 429.75 484.26 429.75 509 483.16 509 512.39 509 512.39 469.08"/></svg>